<?xml version="1.0" encoding="UTF-8"?>
<svg id="Layer_1" xmlns="http://www.w3.org/2000/svg" version="1.1" viewBox="0 0 512 512">
  <!-- Generator: Adobe Illustrator 30.6.0, SVG Export Plug-In . SVG Version: 2.1.4 Build 109)  -->
  <defs>
    <style>
      .st0 {
        fill: #fff;
      }

      .st1 {
        fill: #bab9ff;
      }
    </style>
  </defs>
  <circle class="st1" cx="256" cy="256" r="256"/>
  <g>
    <polygon class="st0" points="313.7 149.2 316.6 150.7 321 141.9 318 140.5 313.7 149.2"/>
    <polygon class="st0" points="354.6 180.9 356.7 183.3 366.1 178.5 364 176.1 354.6 180.9"/>
    <polygon class="st0" points="209.3 134.4 217.1 144.2 219.8 143.1 212 133.3 209.3 134.4"/>
    <polygon class="st0" points="373.6 270.4 385.9 276.7 386.9 274.1 374.7 267.9 373.6 270.4"/>
    <polygon class="st0" points="186.2 171.3 173.9 165 172.4 167.4 184.8 173.7 186.2 171.3"/>
    <path class="st0" d="M286.2,219.3c-.3-.6-.7-1.2-1.2-1.7s-1-1-1.6-1.4c-.6-.4-1.2-.7-1.9-1l-10.9-64.4-4.9-.3,10.8,64.5c-.6.2-1.1.5-1.6.8s-.9.8-1.2,1.2c-.3.5-.5,1-.6,1.6-.1.6-.1,1.2,0,1.8,0,0,0,.2,0,.2,0,0,0,.2,0,.2,0,0,0,.1,0,.2s0,.2,0,.2l-32,16.4-2.8-3.5-9,12.4,17.7-1.2-2.8-3.6,32-16.5c.3.2.7.4,1,.6.4.2.7.3,1.1.5.4.1.8.2,1.2.3s.8.1,1.2.1c1,0,1.8,0,2.6-.4.8-.3,1.4-.7,2-1.2.5-.5.9-1.2,1.1-1.9.2-.7.3-1.5.1-2.4-.1-.6-.3-1.3-.6-1.9Z"/>
    <polygon class="st0" points="158.9 213.2 159.4 217.9 180.7 218.8 180.2 214.2 158.9 213.2"/>
    <polygon class="st0" points="184 268.1 186.2 270.9 197.7 265 195.6 262.2 184 268.1"/>
    <polygon class="st0" points="292.5 310.8 295.8 330.5 301.1 330.6 297.8 310.9 292.5 310.8"/>
    <polygon class="st0" points="233.5 310.3 236.9 311.9 242.3 300.9 239 299.2 233.5 310.3"/>
    <path class="st0" d="M245.8,94.5c-52.8,0-102.6,26-118.9,76.5h0c-18.5,57.4-53.7,120,14.3,191.9,30.7,32.4,74.6,53.4,120.5,54.5h0c5.8,0,4.1,0,5.9,0h0c28.5-.4,56-8.6,78-25.7,12.8-10,14.3-13.2,60.4-70.6h0c69.9-87-30-226.7-160.1-226.7ZM197.2,302.7c-93.4-77.9-50.7-197.2,64.2-188.6,67.1,5,128.4,54.4,142.1,112.9,24.7,105.7-111,155.2-206.3,75.7Z"/>
    <polygon class="st0" points="268.6 138.9 265.8 122.7 261 122.4 263.7 138.5 268.6 138.9"/>
    <polygon class="st0" points="373.7 222.8 374.6 227.2 393.5 228 392.5 223.7 373.7 222.8"/>
    <polygon class="st0" points="343.5 303 352.2 314 354.8 312.5 346.1 301.5 343.5 303"/>
  </g>
</svg>