<?xml version="1.0" encoding="UTF-8"?>
<svg id="Layer_2" xmlns="http://www.w3.org/2000/svg" version="1.1" viewBox="0 0 532.3 581.5">
  <!-- Generator: Adobe Illustrator 30.3.0, SVG Export Plug-In . SVG Version: 2.1.3 Build 182)  -->
  <defs>
    <style>
      .st0 {
        fill: none;
        stroke: #000;
        stroke-miterlimit: 10;
      }
    </style>
  </defs>
  <g>
    <g>
      <path d="M295.5,223.6c-2.6-2.6-6.9-2.7-9.5-.1l-167.5,160.7c-2.8,2.6-2.8,7-.1,9.7l30,30c2.7,2.7,7.1,2.7,9.7,0l160.7-167.5c2.6-2.7,2.5-6.9-.1-9.5l-23.1-23.1h0Z"/>
      <path d="M428.1,247.9l-14.6-15c-1.5-1.6-3.6-2.4-5.8-2.4-7.7,0-26.7-2.7-30.3-29.8-4.5-34.1-55.8-51.8-55.8-51.8,0,0-46.1-16.5-74,2.8,0,0-6.3,7.4,6.8,9.1,12.7,1.7,54.4,4.9,42.7,51.5-.7,2.7.1,5.6,2.1,7.5l22.8,22.8c2.3,2.3,5.7,2.9,8.7,1.7,5.5-2.2,15-4.4,23.2,2.4,9.2,7.5,10.7,19,10.9,24.5,0,2.2,1.1,4.3,2.8,5.7l17.1,14.7c2.2,1.9,5.6,1.8,7.6-.3l35.6-35.6c2.2-2.2,2.2-5.7,0-7.9h0Z"/>
    </g>
    <g>
      <path d="M397,366.5l-76.2-59.2-11.5-19.6c-1.9-3.2-6.4-3.8-9-1l-32.5,33.9c-2.6,2.8-1.9,7.3,1.5,9l20.3,10.2,59.2,77.3c13.4,16.5,38.2,17.5,52.9,2.2,14.8-15.4,12.6-40.2-4.6-52.8h0Z"/>
      <path d="M271.7,306l14.2-14.8-117.5-112.7h0l-3.7-18.2c-.5-2.4-2.1-4.4-4.4-5.3l-30.5-12.6-14.2,14.8,14.2,29.5c1.1,2.2,3.1,3.7,5.6,4.1l18.7,2.6h0l117.5,112.7h0Z"/>
    </g>
  </g>
  <g>
    <path d="M11.5,156l6.6-10.9,16.3,2.8c3,.5,5.7,1,8.7,1.7-2-2.4-3.8-4.6-5.5-7l-10-13.2,6.6-10.8,39.8,24.2-4.9,8-17-10.3c-2.9-1.7-6-3.7-9.9-6.4,3.6,4.1,6.3,7.7,8.8,11.2l5.9,8.5-3.6,5.9-10.3-1.2c-4.3-.6-8.7-1.4-14.1-2.6,4.1,2.2,7.4,4.1,10.2,5.9l17,10.3-4.9,8-39.8-24.2h0Z"/>
    <path d="M67.5,129.7l-14.5-13.1c-6.9-6.3-6.9-13.4,0-20.9l3.2-3.6c6.8-7.5,13.8-8.3,20.8-2l14.5,13.1c6.9,6.3,6.9,13.3.1,20.9l-3.2,3.6c-6.8,7.5-13.9,8.3-20.8,2h0ZM85.1,117.7c1.9-2.1,2-4.2-.2-6.2l-15.6-14.1c-2.2-2-4.3-1.7-6.2.4l-3.8,4.2c-1.9,2.1-2,4.2.2,6.2l15.6,14.1c2.2,2,4.3,1.7,6.2-.4l3.8-4.2Z"/>
    <path d="M77,71.6l9-7.1,18.3,9c3.7,1.9,6.9,3.5,10.9,5.8-2.7-3.1-4.8-5.7-6.8-8.2l-11.8-15,7.8-6.1,28.8,36.6-9,7.1-18.3-9c-3.7-1.9-6.9-3.5-10.9-5.8,2.7,3.1,4.8,5.7,6.8,8.1l11.8,15-7.8,6.1-28.8-36.6h0Z"/>
    <path d="M126.7,46.8l-9.4,5.3-4.3-7.6,28-15.7,4.3,7.6-9.5,5.3,18.6,33-9.1,5.1-18.6-33h0Z"/>
    <path d="M182.5,51.8l-13.3,5.2,1.2,9.7-10.3,4-5.1-48,14.5-5.7,28.9,38.7-10.3,4-5.7-8h0ZM177.7,45l-5.4-7.6c-2.3-3.2-4.4-6.2-7-10,.7,4.6,1.2,8.1,1.7,12.1l1.2,9.3,9.5-3.7h0Z"/>
    <path d="M218.8,21.1l-.8-4c-.6-2.8-2.3-3.7-5.1-3.1l-5.5,1.1c-2.7.6-4,2.2-3.3,5.1l4.3,20.6c.6,2.9,2.4,3.9,5.1,3.4l5.5-1.1c2.8-.6,4.1-2.1,3.5-5.1l-.9-4.4-7.4,1.5-1.6-7.7,17.7-3.6,5.1,24.5-5.9,1.2-2.2-4.2c-1.5,3.8-5.1,6.3-10.5,7.4l-1,.2c-9.9,2-15.9-1.5-17.8-10.7l-4-19.2c-1.9-9.2,2.2-14.8,12.2-16.9l4.7-1c10-2.1,16,1.6,17.8,10.2l.7,3.6-10.3,2.1h0Z"/>
    <path d="M239.1,1.3l28-1.3.4,8.8-17.6.8.5,9.9,17-.8.4,8.7-17,.8.5,10.4,17.6-.8.4,8.8-28,1.3-2.2-46.5h0Z"/>
    <path d="M276.2,19.2l15.7,1.1-.6,8.5-15.7-1.1.6-8.5Z"/>
    <path d="M297.1,36.1l.7-3.7,10.2,2-.8,4.4c-.5,2.3.6,3.5,3.1,4l5.4,1.1c2.6.5,3.9-.2,4.3-2.5l.3-1.8c.4-2.2-.1-3.3-2.2-4.5l-9.8-5.3c-6.2-3.3-8.4-7.6-7.1-14.1l.3-1.4c1.6-8.1,7.4-11.5,16.8-9.7l4,.8c9.4,1.8,13.6,6.9,12,15.3l-.7,3.8-10.2-2,.9-4.5c.4-2.3-.5-3.5-3.1-4l-4.9-.9c-2.5-.5-3.9.3-4.4,2.5l-.4,2c-.4,2.2.2,3.3,2.2,4.4l9.6,5.2c6.6,3.6,8.6,7.7,7.3,14.1l-.2,1.1c-1.6,8.2-7.4,11.5-16.8,9.7l-4.6-.9c-9.4-1.8-13.6-6.9-12-15.3h0Z"/>
    <path d="M349.1,12.3l26.4,9.4-3,8.3-16.6-5.9-3.3,9.3,16,5.7-3,8.2-16-5.7-3.5,9.8,16.6,5.9-3,8.3-26.4-9.4,15.7-43.9h0Z"/>
    <path d="M387.3,26.9l15.9,8.6c8.8,4.8,10.9,10.3,6.9,17.8l-1.1,2.1c-2.8,5.1-7.3,7.2-12.2,5.4,4.9,3.4,5.3,7.9,2.5,13l-5.3,9.7-9.5-5.1,6.2-11.5c1.2-2.3.7-3.8-1.7-5.1l-6.8-3.7-8,14.7-9.1-4.9,22.2-41h0ZM393.2,54.1c2.4,1.3,3.8.9,5-1.1l3-5.4c1.1-2,.7-3.4-1.8-4.7l-6.9-3.7-6.1,11.3,6.9,3.7h0Z"/>
    <path d="M456.4,72.4l-37.8,29.6-12.9-10,19.5-43.9,9,7-11.7,24.7c-1.8,3.7-3.3,7-5.4,11,3.3-3,6.2-5.3,9.3-7.9l21.1-17.4,9,7h0Z"/>
    <path d="M463.1,79.5l7.4,7.3-32.9,33-7.4-7.3,32.9-33Z"/>
    <path d="M453,115.7l15.4-12.1c7.3-5.8,14.2-4.7,20.4,3.2l3,3.8c6.2,7.9,5.7,14.8-1.6,20.5l-4.6,3.6-6.5-8.3,5.2-4.1c2.3-1.8,2.4-3.7.7-5.9l-3.5-4.5c-1.7-2.1-3.6-2.5-6-.6l-16.5,13c-2.4,1.9-2.5,3.8-.8,6l3.5,4.5c1.7,2.1,3.6,2.5,5.9.7l5.2-4.1,6.5,8.3-4.6,3.6c-7.3,5.8-14,4.6-20.3-3.3l-3-3.8c-6.2-7.9-5.7-14.8,1.7-20.6h0Z"/>
    <path d="M507.7,133.8l13.7,24.4-7.7,4.3-8.6-15.3-8.6,4.8,8.3,14.8-7.6,4.3-8.3-14.8-9,5.1,8.6,15.3-7.7,4.3-13.7-24.4,40.6-22.8h0Z"/>
  </g>
  <g>
    <path d="M70,411.9l7.6,11.5-10.4,14.6c-1.9,2.7-3.7,5.1-5.8,7.7,3.2-.9,6.3-1.5,9.4-2.2l17.6-3.7,7.5,11.5-42.2,27.7-5.6-8.5,18-11.8c3-2,6.5-4.2,10.9-6.8-5.7,1.6-10.5,2.5-15.1,3.4l-11.1,1.7-4.1-6.2,6-9.5c2.6-3.9,5.4-7.9,9.1-12.5-4.1,3-7.5,5.3-10.5,7.3l-18,11.8-5.6-8.5,42.2-27.7h0Z"/>
    <path d="M88.3,500.5l-10.9-11-9.1,5.4-8.4-8.5,45.5-25.9,11.9,11.9-25.9,45.4-8.4-8.5,5.5-9.1h0ZM93,492.7l5.2-8.7c2.2-3.7,4.2-7.1,6.9-11.3-4.2,2.7-7.6,4.7-11.3,6.9l-8.7,5.2,7.8,7.8h0Z"/>
    <path d="M126.6,492.7l-9.5-7,5.6-7.6,28,20.6-5.6,7.6-9.5-7-24.3,33.1-9.1-6.7,24.3-33.1h0Z"/>
    <path d="M160,514.2l-10.5-5.2,4.2-8.4,31.2,15.4-4.2,8.4-10.5-5.2-18.2,36.8-10.1-5,18.2-36.8h0Z"/>
    <path d="M186.7,516.8l10.9,3.2-5.6,19,13.5,4,5.6-19,10.9,3.2-14.2,48.4-10.9-3.2,5.7-19.6-13.5-4-5.7,19.6-10.9-3.2,14.2-48.4h0Z"/>
    <path d="M230.8,528.1l11.2,1.5-6.8,50-11.2-1.5,6.8-50Z"/>
    <path d="M271,571.1l-15.5-.2-2.8,10.2-12-.2,14.7-50.2,16.9.3,13,50.7-12-.2-2.4-10.3h0ZM269,562.3l-2.3-9.9c-1-4.2-1.9-8-2.9-12.9-1.2,4.9-2.2,8.6-3.3,12.8l-2.6,9.8,11.1.2h0Z"/>
    <path d="M290.5,567.6l-.7-4,11.1-1.9.8,4.8c.4,2.5,1.9,3.3,4.7,2.9l5.9-1c2.8-.5,3.9-1.7,3.4-4.2l-.3-1.9c-.4-2.4-1.4-3.3-3.9-3.7l-12-1.7c-7.6-1-11.3-4.5-12.5-11.6l-.2-1.5c-1.5-8.9,3.2-14.5,13.4-16.2l4.4-.7c10.2-1.7,16.4,1.9,17.9,11l.7,4.2-11.1,1.9-.8-4.9c-.4-2.5-1.9-3.3-4.6-2.9l-5.4.9c-2.7.5-3.9,1.8-3.5,4.2l.4,2.1c.4,2.3,1.4,3.3,3.9,3.7l11.7,1.7c8.1,1.2,11.6,4.6,12.8,11.6l.2,1.2c1.5,9-3.1,14.5-13.4,16.2l-5,.8c-10.3,1.7-16.4-1.9-18-11h0Z"/>
    <path d="M355.1,552.9l-1.7-3.7,10.3-4.7,2,4.4c1.1,2.3,2.7,2.7,5.3,1.6l5.5-2.5c2.6-1.2,3.3-2.6,2.2-5l-.8-1.8c-1-2.2-2.2-2.9-4.7-2.6l-12,1.5c-7.6,1-12.1-1.5-15.1-8l-.6-1.4c-3.7-8.2-.6-14.8,8.8-19.1l4-1.8c9.5-4.3,16.3-2.4,20.2,6l1.8,3.8-10.3,4.7-2-4.5c-1-2.3-2.7-2.8-5.2-1.6l-5,2.2c-2.5,1.2-3.3,2.7-2.3,5l.9,2c1,2.2,2.2,2.8,4.7,2.5l11.8-1.4c8.1-1,12.4,1.5,15.3,7.9l.5,1.2c3.8,8.3.7,14.8-8.8,19.1l-4.6,2.1c-9.5,4.3-16.4,2.4-20.2-6h0Z"/>
    <path d="M376.8,501.5l25.1-17,5.3,7.9-15.8,10.7,6,8.9,15.2-10.3,5.3,7.8-15.2,10.3,6.3,9.3,15.8-10.7,5.3,7.9-25.1,17-28.4-41.7h0Z"/>
    <path d="M407.4,479.3l8.4-7.5,33.6,37.7-8.4,7.5-33.6-37.7Z"/>
    <path d="M421.9,466.8l12.8-15.3c7.3-8.7,15-10.1,23.2-3.3l14.7,12.4c8.1,6.8,8.1,14.7.7,23.4l-12.8,15.3-38.7-32.5h0ZM466.3,477.4c2.3-2.7,2.4-5.2-.6-7.7l-15.6-13.1c-3-2.5-5.3-2-7.7.8l-5.9,7,23.8,20,5.9-7h0Z"/>
    <path d="M449.2,432.7l5.7-9.7,35.4,20.6,8.6-14.7,8.2,4.8-14.2,24.5-43.6-25.4h0Z"/>
  </g>
  <path d="M501.3,409.7l-3.5-1.9c20-37.6,30.6-80.1,30.6-123s-7.4-72-22-105.3l3.7-1.6c14.8,33.8,22.3,69.7,22.3,106.9s-10.7,86.7-31,124.8Z"/>
  <path d="M35.1,417.2C12.2,377.1,0,331.4,0,284.9s7.5-73.1,22.3-106.9l3.7,1.6c-14.6,33.2-22,68.7-22,105.3s12,90.8,34.6,130.3l-3.5,2Z"/>
  <g>
    <path d="M211.7,447.9h11.1v3.5h-7v3.9h6.7v3.5h-6.7v4.1h7v3.5h-11.1v-18.5h0Z"/>
    <path d="M225.4,461.5v-1.5h4.1v1.8c0,.9.5,1.3,1.5,1.3h2.2c1,0,1.5-.4,1.5-1.3v-.7c0-.9-.3-1.3-1.2-1.6l-4.2-1.3c-2.7-.8-3.8-2.3-3.8-4.9v-.5c0-3.3,2-5,5.8-5h1.6c3.8,0,5.8,1.7,5.8,5v1.5h-4.1v-1.8c0-.9-.5-1.3-1.5-1.3h-2c-1,0-1.5.4-1.5,1.3v.8c0,.9.3,1.3,1.2,1.6l4.1,1.3c2.9.9,3.9,2.4,3.9,5v.5c0,3.3-2,5-5.8,5h-1.9c-3.8,0-5.8-1.7-5.8-5h0Z"/>
    <path d="M244.6,451.3h-4.3v-3.4h12.7v3.4h-4.3v15h-4.1v-15h0Z"/>
    <path d="M253.1,461.9h4.4v4.4h-4.4v-4.4Z"/>
    <path d="M265.1,462.4c0-2.7,1-4,3.7-5.2l3.9-1.7c.9-.4,1.1-.9,1.1-1.9v-1c0-1-.5-1.4-1.5-1.4h-1.9c-1,0-1.5.4-1.5,1.4v2h-4v-1.8c0-3.5,2-5.2,5.6-5.2h1.5c3.6,0,5.6,1.7,5.6,5.1v1c0,2.6-1,4-3.7,5.1l-3.9,1.7c-.9.4-1.2.9-1.2,1.7v.6h8.8v3.5h-12.7v-3.9h0Z"/>
    <path d="M280.6,461.1v-7.9c0-3.7,1.9-5.5,5.9-5.5h1.2c4,0,5.9,1.8,5.9,5.5v7.9c0,3.7-1.9,5.5-5.9,5.5h-1.2c-4,0-5.9-1.8-5.9-5.5ZM288,463c1.1,0,1.5-.5,1.5-1.7v-8.4c0-1.2-.5-1.7-1.5-1.7h-2c-1.1,0-1.5.5-1.5,1.7v8.4c0,1.2.5,1.7,1.5,1.7h2Z"/>
    <path d="M296,462.9h3.3v-10.9l-3.6,1v-3.7l7.6-1.9v15.5h2.9v3.5h-10.2v-3.5h0Z"/>
    <path d="M320.9,460.9v.6c0,3.4-2,5.1-5.6,5.1h-1.8c-3.7,0-5.6-1.7-5.6-5.1v-1.5h4v1.7c0,.9.5,1.3,1.5,1.3h2.1c1,0,1.5-.5,1.5-1.4v-1.6c0-.9-.4-1.3-1.4-1.3h-3.1v-3.3h2.9c.9,0,1.4-.4,1.4-1.4v-1.5c0-.9-.5-1.4-1.4-1.4h-1.8c-.9,0-1.4.4-1.4,1.3v1.6h-4v-1.3c0-3.3,1.9-5,5.6-5h1.4c3.7,0,5.6,1.7,5.6,5.1v.5c0,2-1,3.3-3,3.7,2.2.3,3.2,1.8,3.2,3.9h0Z"/>
  </g>
  <line class="st0" x1="211.7" y1="436.5" x2="320.7" y2="436.5"/>
  <line class="st0" x1="211" y1="477.3" x2="320" y2="477.3"/>
</svg>